<?xml version="1.0" encoding="utf-8" standalone="no"?>
<!DOCTYPE svg PUBLIC "-//W3C//DTD SVG 1.1//EN"
  "http://www.w3.org/Graphics/SVG/1.1/DTD/svg11.dtd">
<svg xmlns:xlink="http://www.w3.org/1999/xlink" width="460.8pt" height="345.6pt" viewBox="0 0 460.8 345.6" xmlns="http://www.w3.org/2000/svg" version="1.1">
 <metadata>
  <rdf:RDF xmlns:dc="http://purl.org/dc/elements/1.1/" xmlns:cc="http://creativecommons.org/ns#" xmlns:rdf="http://www.w3.org/1999/02/22-rdf-syntax-ns#">
   <cc:Work>
    <dc:type rdf:resource="http://purl.org/dc/dcmitype/StillImage"/>
    <dc:date>2023-10-30T12:19:23.009840</dc:date>
    <dc:format>image/svg+xml</dc:format>
    <dc:creator>
     <cc:Agent>
      <dc:title>Matplotlib v3.8.0, https://matplotlib.org/</dc:title>
     </cc:Agent>
    </dc:creator>
   </cc:Work>
  </rdf:RDF>
 </metadata>
 <defs>
  <style type="text/css">*{stroke-linejoin: round; stroke-linecap: butt}</style>
 </defs>
 <g id="figure_1">
  <g id="patch_1">
   <path d="M 0 345.6 
L 460.8 345.6 
L 460.8 0 
L 0 0 
z
" style="fill: #ffffff"/>
  </g>
  <g id="axes_1">
   <g id="patch_2">
    <path d="M 57.6 307.584 
L 414.72 307.584 
L 414.72 41.472 
L 57.6 41.472 
z
" style="fill: #ffffff"/>
   </g>
   <g id="matplotlib.axis_1">
    <g id="xtick_1">
     <g id="line2d_1">
      <defs>
       <path id="medfc319c63" d="M 0 0 
L 0 3.5 
" style="stroke: #000000; stroke-width: 0.8"/>
      </defs>
      <g>
       <use xlink:href="#medfc319c63" x="57.6" y="307.584" style="stroke: #000000; stroke-width: 0.8"/>
      </g>
     </g>
     <g id="text_1">
      <!-- 0.0 -->
      <g transform="translate(50.65 321.741812) scale(0.1 -0.1)">
       <defs>
        <path id="ArialUnicodeMS-30" d="M 1778 4603 
Q 3272 4603 3272 2259 
Q 3272 1075 2886 498 
Q 2500 -78 1778 -78 
Q 288 -78 288 2259 
Q 288 3444 673 4023 
Q 1059 4603 1778 4603 
z
M 1778 384 
Q 2231 384 2462 823 
Q 2694 1263 2694 2259 
Q 2694 2953 2592 3351 
Q 2491 3750 2286 3945 
Q 2081 4141 1772 4141 
Q 1319 4141 1091 3694 
Q 863 3247 863 2259 
Q 863 1575 966 1175 
Q 1069 775 1272 579 
Q 1475 384 1778 384 
z
" transform="scale(0.015625)"/>
        <path id="ArialUnicodeMS-2e" d="M 1209 0 
L 569 0 
L 569 641 
L 1209 641 
L 1209 0 
z
" transform="scale(0.015625)"/>
       </defs>
       <use xlink:href="#ArialUnicodeMS-30"/>
       <use xlink:href="#ArialUnicodeMS-2e" x="55.615234"/>
       <use xlink:href="#ArialUnicodeMS-30" x="83.398438"/>
      </g>
     </g>
    </g>
    <g id="xtick_2">
     <g id="line2d_2">
      <g>
       <use xlink:href="#medfc319c63" x="129.024" y="307.584" style="stroke: #000000; stroke-width: 0.8"/>
      </g>
     </g>
     <g id="text_2">
      <!-- 0.1 -->
      <g transform="translate(122.074 321.741812) scale(0.1 -0.1)">
       <defs>
        <path id="ArialUnicodeMS-31" d="M 2400 0 
L 1838 0 
L 1838 3584 
Q 1416 3184 709 2906 
L 709 3450 
Q 1681 3916 2034 4603 
L 2400 4603 
L 2400 0 
z
" transform="scale(0.015625)"/>
       </defs>
       <use xlink:href="#ArialUnicodeMS-30"/>
       <use xlink:href="#ArialUnicodeMS-2e" x="55.615234"/>
       <use xlink:href="#ArialUnicodeMS-31" x="83.398438"/>
      </g>
     </g>
    </g>
    <g id="xtick_3">
     <g id="line2d_3">
      <g>
       <use xlink:href="#medfc319c63" x="200.448" y="307.584" style="stroke: #000000; stroke-width: 0.8"/>
      </g>
     </g>
     <g id="text_3">
      <!-- 0.2 -->
      <g transform="translate(193.498 321.741812) scale(0.1 -0.1)">
       <defs>
        <path id="ArialUnicodeMS-32" d="M 3231 0 
L 197 0 
Q 197 388 467 784 
Q 738 1181 1478 1778 
Q 1931 2141 2287 2539 
Q 2644 2938 2644 3341 
Q 2644 3688 2398 3914 
Q 2153 4141 1778 4141 
Q 1400 4141 1144 3908 
Q 888 3675 884 3213 
L 306 3278 
Q 359 3922 764 4262 
Q 1169 4603 1791 4603 
Q 2466 4603 2842 4229 
Q 3219 3856 3219 3328 
Q 3219 2888 2901 2436 
Q 2584 1984 1638 1228 
Q 1141 831 978 544 
L 3231 544 
L 3231 0 
z
" transform="scale(0.015625)"/>
       </defs>
       <use xlink:href="#ArialUnicodeMS-30"/>
       <use xlink:href="#ArialUnicodeMS-2e" x="55.615234"/>
       <use xlink:href="#ArialUnicodeMS-32" x="83.398438"/>
      </g>
     </g>
    </g>
    <g id="xtick_4">
     <g id="line2d_4">
      <g>
       <use xlink:href="#medfc319c63" x="271.872" y="307.584" style="stroke: #000000; stroke-width: 0.8"/>
      </g>
     </g>
     <g id="text_4">
      <!-- 0.3 -->
      <g transform="translate(264.922 321.741812) scale(0.1 -0.1)">
       <defs>
        <path id="ArialUnicodeMS-33" d="M 2425 2478 
Q 2850 2397 3067 2067 
Q 3284 1738 3284 1350 
Q 3284 725 2829 323 
Q 2375 -78 1741 -78 
Q 1134 -78 740 275 
Q 347 628 281 1209 
L 844 1288 
Q 928 834 1151 609 
Q 1375 384 1741 384 
Q 2134 384 2407 661 
Q 2681 938 2681 1338 
Q 2681 1722 2432 1975 
Q 2184 2228 1784 2228 
Q 1622 2228 1388 2169 
L 1453 2663 
Q 1678 2663 1809 2684 
Q 1941 2706 2103 2790 
Q 2266 2875 2372 3033 
Q 2478 3191 2478 3425 
Q 2478 3766 2251 3953 
Q 2025 4141 1728 4141 
Q 1388 4141 1173 3925 
Q 959 3709 903 3309 
L 341 3413 
Q 450 4009 823 4306 
Q 1197 4603 1716 4603 
Q 2288 4603 2670 4258 
Q 3053 3913 3053 3413 
Q 3053 2772 2425 2491 
L 2425 2478 
z
" transform="scale(0.015625)"/>
       </defs>
       <use xlink:href="#ArialUnicodeMS-30"/>
       <use xlink:href="#ArialUnicodeMS-2e" x="55.615234"/>
       <use xlink:href="#ArialUnicodeMS-33" x="83.398438"/>
      </g>
     </g>
    </g>
    <g id="xtick_5">
     <g id="line2d_5">
      <g>
       <use xlink:href="#medfc319c63" x="343.296" y="307.584" style="stroke: #000000; stroke-width: 0.8"/>
      </g>
     </g>
     <g id="text_5">
      <!-- 0.4 -->
      <g transform="translate(336.346 321.741812) scale(0.1 -0.1)">
       <defs>
        <path id="ArialUnicodeMS-34" d="M 3263 1094 
L 2644 1094 
L 2644 0 
L 2081 0 
L 2081 1094 
L 97 1094 
L 97 1613 
L 2181 4581 
L 2644 4581 
L 2644 1613 
L 3263 1613 
L 3263 1094 
z
M 2081 1613 
L 2081 3681 
L 2069 3681 
L 647 1613 
L 2081 1613 
z
" transform="scale(0.015625)"/>
       </defs>
       <use xlink:href="#ArialUnicodeMS-30"/>
       <use xlink:href="#ArialUnicodeMS-2e" x="55.615234"/>
       <use xlink:href="#ArialUnicodeMS-34" x="83.398438"/>
      </g>
     </g>
    </g>
    <g id="xtick_6">
     <g id="line2d_6">
      <g>
       <use xlink:href="#medfc319c63" x="414.72" y="307.584" style="stroke: #000000; stroke-width: 0.8"/>
      </g>
     </g>
     <g id="text_6">
      <!-- 0.5 -->
      <g transform="translate(407.77 321.741812) scale(0.1 -0.1)">
       <defs>
        <path id="ArialUnicodeMS-35" d="M 1013 2753 
Q 1431 3041 1881 3041 
Q 2453 3041 2878 2636 
Q 3303 2231 3303 1556 
Q 3303 875 2872 398 
Q 2441 -78 1741 -78 
Q 1169 -78 750 245 
Q 331 569 269 1203 
L 856 1247 
Q 928 813 1162 598 
Q 1397 384 1741 384 
Q 2169 384 2434 707 
Q 2700 1031 2700 1503 
Q 2700 1984 2428 2262 
Q 2156 2541 1728 2541 
Q 1188 2541 897 2100 
L 366 2163 
L 813 4519 
L 3084 4519 
L 3084 3975 
L 1259 3975 
L 1013 2753 
z
" transform="scale(0.015625)"/>
       </defs>
       <use xlink:href="#ArialUnicodeMS-30"/>
       <use xlink:href="#ArialUnicodeMS-2e" x="55.615234"/>
       <use xlink:href="#ArialUnicodeMS-35" x="83.398438"/>
      </g>
     </g>
    </g>
    <g id="text_7">
     <!-- Hamming distance -->
     <g transform="translate(194.756094 334.891812) scale(0.1 -0.1)">
      <defs>
       <path id="ArialUnicodeMS-48" d="M 4109 0 
L 3500 0 
L 3500 2156 
L 1119 2156 
L 1119 0 
L 513 0 
L 513 4581 
L 1119 4581 
L 1119 2700 
L 3500 2700 
L 3500 4581 
L 4109 4581 
L 4109 0 
z
" transform="scale(0.015625)"/>
       <path id="ArialUnicodeMS-61" d="M 3303 0 
L 2713 0 
Q 2631 156 2597 409 
Q 2031 -78 1375 -78 
Q 850 -78 547 184 
Q 244 447 244 878 
Q 244 1291 536 1558 
Q 828 1825 1550 1913 
L 2075 1991 
Q 2369 2038 2559 2106 
Q 2559 2359 2543 2464 
Q 2528 2569 2451 2681 
Q 2375 2794 2206 2862 
Q 2038 2931 1753 2931 
Q 1391 2931 1180 2797 
Q 969 2663 891 2297 
L 341 2369 
Q 431 2878 806 3134 
Q 1181 3391 1838 3391 
Q 2434 3391 2714 3214 
Q 2994 3038 3058 2788 
Q 3122 2538 3122 2144 
L 3122 1388 
Q 3122 697 3148 461 
Q 3175 225 3303 0 
z
M 2559 1459 
L 2559 1663 
Q 2119 1516 1481 1430 
Q 844 1344 844 891 
Q 844 663 1016 514 
Q 1188 366 1509 366 
Q 1925 366 2242 614 
Q 2559 863 2559 1459 
z
" transform="scale(0.015625)"/>
       <path id="ArialUnicodeMS-6d" d="M 4922 0 
L 4359 0 
L 4359 2094 
Q 4359 2325 4328 2489 
Q 4297 2653 4167 2779 
Q 4038 2906 3763 2906 
Q 3431 2906 3190 2675 
Q 2950 2444 2950 1925 
L 2950 0 
L 2388 0 
L 2388 2156 
Q 2388 2588 2236 2747 
Q 2084 2906 1806 2906 
Q 1444 2906 1211 2656 
Q 978 2406 978 1722 
L 978 0 
L 416 0 
L 416 3316 
L 922 3316 
L 922 2853 
L 934 2853 
Q 1272 3391 1925 3391 
Q 2291 3391 2527 3245 
Q 2763 3100 2869 2809 
Q 3238 3391 3891 3391 
Q 4406 3391 4664 3112 
Q 4922 2834 4922 2278 
L 4922 0 
z
" transform="scale(0.015625)"/>
       <path id="ArialUnicodeMS-69" d="M 991 0 
L 428 0 
L 428 3316 
L 991 3316 
L 991 0 
z
M 991 3944 
L 428 3944 
L 428 4581 
L 991 4581 
L 991 3944 
z
" transform="scale(0.015625)"/>
       <path id="ArialUnicodeMS-6e" d="M 3138 0 
L 2572 0 
L 2572 2016 
Q 2572 2525 2389 2715 
Q 2206 2906 1881 2906 
Q 1631 2906 1407 2784 
Q 1184 2663 1090 2441 
Q 997 2219 997 1813 
L 997 0 
L 434 0 
L 434 3316 
L 941 3316 
L 941 2847 
L 953 2847 
Q 1131 3119 1392 3255 
Q 1653 3391 1997 3391 
Q 2259 3391 2515 3297 
Q 2772 3203 2917 3015 
Q 3063 2828 3100 2615 
Q 3138 2403 3138 2041 
L 3138 0 
z
" transform="scale(0.015625)"/>
       <path id="ArialUnicodeMS-67" d="M 3144 447 
Q 3144 -259 3003 -607 
Q 2863 -956 2503 -1150 
Q 2144 -1344 1644 -1344 
Q 1081 -1344 706 -1094 
Q 331 -844 331 -275 
L 878 -359 
Q 909 -622 1098 -753 
Q 1288 -884 1638 -884 
Q 2075 -884 2278 -706 
Q 2481 -528 2526 -272 
Q 2572 -16 2572 434 
Q 2206 0 1650 0 
Q 1003 0 611 478 
Q 219 956 219 1684 
Q 219 2416 600 2903 
Q 981 3391 1656 3391 
Q 2244 3391 2613 2919 
L 2625 2919 
L 2625 3316 
L 3144 3316 
L 3144 447 
z
M 1703 459 
Q 2063 459 2341 745 
Q 2619 1031 2619 1703 
Q 2619 2297 2353 2614 
Q 2088 2931 1697 2931 
Q 1297 2931 1045 2606 
Q 794 2281 794 1716 
Q 794 1063 1058 761 
Q 1322 459 1703 459 
z
" transform="scale(0.015625)"/>
       <path id="ArialUnicodeMS-20" transform="scale(0.015625)"/>
       <path id="ArialUnicodeMS-64" d="M 3109 0 
L 2584 0 
L 2584 422 
L 2572 422 
Q 2269 -78 1656 -78 
Q 1047 -78 639 405 
Q 231 888 231 1656 
Q 231 2459 615 2925 
Q 1000 3391 1631 3391 
Q 2225 3391 2534 2938 
L 2547 2938 
L 2547 4581 
L 3109 4581 
L 3109 0 
z
M 1716 384 
Q 2084 384 2340 687 
Q 2597 991 2597 1606 
Q 2597 2213 2362 2572 
Q 2128 2931 1691 2931 
Q 1253 2931 1029 2579 
Q 806 2228 806 1656 
Q 806 1244 926 958 
Q 1047 672 1262 528 
Q 1478 384 1716 384 
z
" transform="scale(0.015625)"/>
       <path id="ArialUnicodeMS-73" d="M 2278 2388 
Q 2241 2659 2058 2795 
Q 1875 2931 1550 2931 
Q 1228 2931 1029 2822 
Q 831 2713 831 2503 
Q 831 2306 989 2222 
Q 1147 2138 1613 2016 
Q 2138 1881 2398 1778 
Q 2659 1675 2804 1489 
Q 2950 1303 2950 972 
Q 2950 528 2587 225 
Q 2225 -78 1619 -78 
Q 988 -78 633 189 
Q 278 456 197 991 
L 756 1075 
Q 800 728 1014 556 
Q 1228 384 1613 384 
Q 1981 384 2178 539 
Q 2375 694 2375 916 
Q 2375 1066 2284 1156 
Q 2194 1247 2058 1292 
Q 1922 1338 1447 1453 
Q 741 1622 514 1862 
Q 288 2103 288 2438 
Q 288 2853 619 3122 
Q 950 3391 1509 3391 
Q 2103 3391 2433 3158 
Q 2763 2925 2828 2463 
L 2278 2388 
z
" transform="scale(0.015625)"/>
       <path id="ArialUnicodeMS-74" d="M 1722 6 
Q 1472 -44 1300 -44 
Q 931 -44 762 86 
Q 594 216 556 416 
Q 519 616 519 972 
L 519 2881 
L 109 2881 
L 109 3316 
L 519 3316 
L 519 4141 
L 1081 4481 
L 1081 3316 
L 1644 3316 
L 1644 2881 
L 1081 2881 
L 1081 941 
Q 1081 691 1132 586 
Q 1184 481 1394 481 
Q 1516 481 1644 506 
L 1722 6 
z
" transform="scale(0.015625)"/>
       <path id="ArialUnicodeMS-63" d="M 3144 1147 
Q 3034 513 2643 217 
Q 2253 -78 1759 -78 
Q 1038 -78 644 395 
Q 250 869 250 1650 
Q 250 2297 476 2686 
Q 703 3075 1043 3233 
Q 1384 3391 1759 3391 
Q 2272 3391 2636 3125 
Q 3000 2859 3084 2344 
L 2541 2259 
Q 2456 2594 2267 2762 
Q 2078 2931 1784 2931 
Q 1313 2931 1069 2597 
Q 825 2263 825 1663 
Q 825 1050 1064 717 
Q 1303 384 1753 384 
Q 2116 384 2323 592 
Q 2531 800 2584 1216 
L 3144 1147 
z
" transform="scale(0.015625)"/>
       <path id="ArialUnicodeMS-65" d="M 3309 1516 
L 825 1516 
Q 859 966 1139 675 
Q 1419 384 1838 384 
Q 2159 384 2378 554 
Q 2597 725 2713 1069 
L 3291 997 
Q 3150 478 2775 200 
Q 2400 -78 1838 -78 
Q 1091 -78 670 380 
Q 250 838 250 1631 
Q 250 2416 658 2903 
Q 1066 3391 1806 3391 
Q 2169 3391 2505 3231 
Q 2841 3072 3075 2689 
Q 3309 2306 3309 1516 
z
M 2731 1978 
Q 2697 2484 2417 2707 
Q 2138 2931 1806 2931 
Q 1409 2931 1153 2665 
Q 897 2400 856 1978 
L 2731 1978 
z
" transform="scale(0.015625)"/>
      </defs>
      <use xlink:href="#ArialUnicodeMS-48"/>
      <use xlink:href="#ArialUnicodeMS-61" x="72.216797"/>
      <use xlink:href="#ArialUnicodeMS-6d" x="127.832031"/>
      <use xlink:href="#ArialUnicodeMS-6d" x="211.132812"/>
      <use xlink:href="#ArialUnicodeMS-69" x="294.433594"/>
      <use xlink:href="#ArialUnicodeMS-6e" x="316.650391"/>
      <use xlink:href="#ArialUnicodeMS-67" x="372.265625"/>
      <use xlink:href="#ArialUnicodeMS-20" x="427.880859"/>
      <use xlink:href="#ArialUnicodeMS-64" x="455.664062"/>
      <use xlink:href="#ArialUnicodeMS-69" x="511.279297"/>
      <use xlink:href="#ArialUnicodeMS-73" x="533.496094"/>
      <use xlink:href="#ArialUnicodeMS-74" x="583.496094"/>
      <use xlink:href="#ArialUnicodeMS-61" x="611.279297"/>
      <use xlink:href="#ArialUnicodeMS-6e" x="666.894531"/>
      <use xlink:href="#ArialUnicodeMS-63" x="722.509766"/>
      <use xlink:href="#ArialUnicodeMS-65" x="772.509766"/>
     </g>
    </g>
   </g>
   <g id="matplotlib.axis_2">
    <g id="ytick_1">
     <g id="line2d_7">
      <defs>
       <path id="m2ab1a0ba1a" d="M 0 0 
L -3.5 0 
" style="stroke: #000000; stroke-width: 0.8"/>
      </defs>
      <g>
       <use xlink:href="#m2ab1a0ba1a" x="57.6" y="295.488" style="stroke: #000000; stroke-width: 0.8"/>
      </g>
     </g>
     <g id="text_8">
      <!-- 0.000 -->
      <g transform="translate(25.578125 299.066906) scale(0.1 -0.1)">
       <use xlink:href="#ArialUnicodeMS-30"/>
       <use xlink:href="#ArialUnicodeMS-2e" x="55.615234"/>
       <use xlink:href="#ArialUnicodeMS-30" x="83.398438"/>
       <use xlink:href="#ArialUnicodeMS-30" x="139.013672"/>
       <use xlink:href="#ArialUnicodeMS-30" x="194.628906"/>
      </g>
     </g>
    </g>
    <g id="ytick_2">
     <g id="line2d_8">
      <g>
       <use xlink:href="#m2ab1a0ba1a" x="57.6" y="253.535738" style="stroke: #000000; stroke-width: 0.8"/>
      </g>
     </g>
     <g id="text_9">
      <!-- 0.005 -->
      <g transform="translate(25.578125 257.114645) scale(0.1 -0.1)">
       <use xlink:href="#ArialUnicodeMS-30"/>
       <use xlink:href="#ArialUnicodeMS-2e" x="55.615234"/>
       <use xlink:href="#ArialUnicodeMS-30" x="83.398438"/>
       <use xlink:href="#ArialUnicodeMS-30" x="139.013672"/>
       <use xlink:href="#ArialUnicodeMS-35" x="194.628906"/>
      </g>
     </g>
    </g>
    <g id="ytick_3">
     <g id="line2d_9">
      <g>
       <use xlink:href="#m2ab1a0ba1a" x="57.6" y="211.583477" style="stroke: #000000; stroke-width: 0.8"/>
      </g>
     </g>
     <g id="text_10">
      <!-- 0.010 -->
      <g transform="translate(25.578125 215.162383) scale(0.1 -0.1)">
       <use xlink:href="#ArialUnicodeMS-30"/>
       <use xlink:href="#ArialUnicodeMS-2e" x="55.615234"/>
       <use xlink:href="#ArialUnicodeMS-30" x="83.398438"/>
       <use xlink:href="#ArialUnicodeMS-31" x="139.013672"/>
       <use xlink:href="#ArialUnicodeMS-30" x="194.628906"/>
      </g>
     </g>
    </g>
    <g id="ytick_4">
     <g id="line2d_10">
      <g>
       <use xlink:href="#m2ab1a0ba1a" x="57.6" y="169.631215" style="stroke: #000000; stroke-width: 0.8"/>
      </g>
     </g>
     <g id="text_11">
      <!-- 0.015 -->
      <g transform="translate(25.578125 173.210122) scale(0.1 -0.1)">
       <use xlink:href="#ArialUnicodeMS-30"/>
       <use xlink:href="#ArialUnicodeMS-2e" x="55.615234"/>
       <use xlink:href="#ArialUnicodeMS-30" x="83.398438"/>
       <use xlink:href="#ArialUnicodeMS-31" x="139.013672"/>
       <use xlink:href="#ArialUnicodeMS-35" x="194.628906"/>
      </g>
     </g>
    </g>
    <g id="ytick_5">
     <g id="line2d_11">
      <g>
       <use xlink:href="#m2ab1a0ba1a" x="57.6" y="127.678954" style="stroke: #000000; stroke-width: 0.8"/>
      </g>
     </g>
     <g id="text_12">
      <!-- 0.020 -->
      <g transform="translate(25.578125 131.25786) scale(0.1 -0.1)">
       <use xlink:href="#ArialUnicodeMS-30"/>
       <use xlink:href="#ArialUnicodeMS-2e" x="55.615234"/>
       <use xlink:href="#ArialUnicodeMS-30" x="83.398438"/>
       <use xlink:href="#ArialUnicodeMS-32" x="139.013672"/>
       <use xlink:href="#ArialUnicodeMS-30" x="194.628906"/>
      </g>
     </g>
    </g>
    <g id="ytick_6">
     <g id="line2d_12">
      <g>
       <use xlink:href="#m2ab1a0ba1a" x="57.6" y="85.726692" style="stroke: #000000; stroke-width: 0.8"/>
      </g>
     </g>
     <g id="text_13">
      <!-- 0.025 -->
      <g transform="translate(25.578125 89.305598) scale(0.1 -0.1)">
       <use xlink:href="#ArialUnicodeMS-30"/>
       <use xlink:href="#ArialUnicodeMS-2e" x="55.615234"/>
       <use xlink:href="#ArialUnicodeMS-30" x="83.398438"/>
       <use xlink:href="#ArialUnicodeMS-32" x="139.013672"/>
       <use xlink:href="#ArialUnicodeMS-35" x="194.628906"/>
      </g>
     </g>
    </g>
    <g id="ytick_7">
     <g id="line2d_13">
      <g>
       <use xlink:href="#m2ab1a0ba1a" x="57.6" y="43.774431" style="stroke: #000000; stroke-width: 0.8"/>
      </g>
     </g>
     <g id="text_14">
      <!-- 0.030 -->
      <g transform="translate(25.578125 47.353337) scale(0.1 -0.1)">
       <use xlink:href="#ArialUnicodeMS-30"/>
       <use xlink:href="#ArialUnicodeMS-2e" x="55.615234"/>
       <use xlink:href="#ArialUnicodeMS-30" x="83.398438"/>
       <use xlink:href="#ArialUnicodeMS-33" x="139.013672"/>
       <use xlink:href="#ArialUnicodeMS-30" x="194.628906"/>
      </g>
     </g>
    </g>
    <g id="text_15">
     <!-- Percentage(%) -->
     <g transform="translate(19.478125 207.875656) rotate(-90) scale(0.1 -0.1)">
      <defs>
       <path id="ArialUnicodeMS-50" d="M 494 4581 
L 2222 4581 
Q 2631 4581 2926 4540 
Q 3222 4500 3475 4329 
Q 3728 4159 3858 3867 
Q 3988 3575 3988 3256 
Q 3988 2622 3580 2239 
Q 3172 1856 2272 1856 
L 1100 1856 
L 1100 0 
L 494 0 
L 494 4581 
z
M 1100 2400 
L 2278 2400 
Q 3359 2400 3359 3238 
Q 3359 3513 3218 3723 
Q 3078 3934 2873 3986 
Q 2669 4038 2266 4038 
L 1100 4038 
L 1100 2400 
z
" transform="scale(0.015625)"/>
       <path id="ArialUnicodeMS-72" d="M 2216 3213 
L 2022 2694 
Q 1813 2816 1613 2816 
Q 1297 2816 1134 2533 
Q 972 2250 972 1741 
L 972 0 
L 409 0 
L 409 3316 
L 922 3316 
L 922 2816 
L 934 2816 
Q 1203 3391 1638 3391 
Q 1925 3391 2216 3213 
z
" transform="scale(0.015625)"/>
       <path id="ArialUnicodeMS-28" d="M 1900 -1344 
L 1497 -1344 
Q 978 -681 681 103 
Q 384 888 384 1656 
Q 384 2528 700 3275 
Q 1016 4022 1497 4659 
L 1900 4659 
Q 1344 3747 1155 3059 
Q 966 2372 966 1663 
Q 966 153 1900 -1344 
z
" transform="scale(0.015625)"/>
       <path id="ArialUnicodeMS-25" d="M 4325 4659 
L 1838 -159 
L 1369 -159 
L 3872 4659 
L 4325 4659 
z
M 1428 4653 
Q 1856 4653 2137 4343 
Q 2419 4034 2419 3438 
Q 2419 2850 2131 2539 
Q 1844 2228 1434 2228 
Q 1009 2228 739 2540 
Q 469 2853 469 3475 
Q 469 3984 722 4318 
Q 975 4653 1428 4653 
z
M 1441 2619 
Q 1931 2619 1931 3463 
Q 1931 4269 1441 4269 
Q 953 4269 953 3419 
Q 953 2619 1441 2619 
z
M 4250 2253 
Q 4681 2253 4961 1943 
Q 5241 1634 5241 1038 
Q 5241 600 5087 328 
Q 4934 56 4709 -58 
Q 4484 -172 4256 -172 
Q 3831 -172 3561 140 
Q 3291 453 3291 1075 
Q 3291 1584 3544 1918 
Q 3797 2253 4250 2253 
z
M 4263 219 
Q 4756 219 4756 1063 
Q 4756 1869 4263 1869 
Q 3775 1869 3775 1019 
Q 3775 219 4263 219 
z
" transform="scale(0.015625)"/>
       <path id="ArialUnicodeMS-29" d="M 634 4659 
Q 1153 3997 1450 3212 
Q 1747 2428 1747 1656 
Q 1747 788 1431 41 
Q 1116 -706 634 -1344 
L 231 -1344 
Q 788 -431 977 255 
Q 1166 941 1166 1650 
Q 1166 3163 231 4659 
L 634 4659 
z
" transform="scale(0.015625)"/>
      </defs>
      <use xlink:href="#ArialUnicodeMS-50"/>
      <use xlink:href="#ArialUnicodeMS-65" x="66.699219"/>
      <use xlink:href="#ArialUnicodeMS-72" x="122.314453"/>
      <use xlink:href="#ArialUnicodeMS-63" x="155.615234"/>
      <use xlink:href="#ArialUnicodeMS-65" x="205.615234"/>
      <use xlink:href="#ArialUnicodeMS-6e" x="261.230469"/>
      <use xlink:href="#ArialUnicodeMS-74" x="316.845703"/>
      <use xlink:href="#ArialUnicodeMS-61" x="344.628906"/>
      <use xlink:href="#ArialUnicodeMS-67" x="400.244141"/>
      <use xlink:href="#ArialUnicodeMS-65" x="455.859375"/>
      <use xlink:href="#ArialUnicodeMS-28" x="511.474609"/>
      <use xlink:href="#ArialUnicodeMS-25" x="544.775391"/>
      <use xlink:href="#ArialUnicodeMS-29" x="633.691406"/>
     </g>
    </g>
   </g>
   <g id="line2d_14">
    <path d="M 57.6 295.488 
L 90.520882 295.488 
L 91.236553 289.894365 
L 91.952224 295.488 
L 94.81491 295.488 
L 95.530581 289.894365 
L 96.246253 295.488 
L 96.961924 295.488 
L 97.677595 289.894365 
L 98.393267 295.488 
L 99.108938 289.894365 
L 99.824609 295.488 
L 101.255952 295.488 
L 101.971623 284.30073 
L 102.687295 295.488 
L 103.402966 295.488 
L 104.834309 284.30073 
L 105.54998 284.30073 
L 106.265651 289.894365 
L 106.981323 289.894365 
L 107.696994 284.30073 
L 108.412665 289.894365 
L 109.128337 289.894365 
L 109.844008 295.488 
L 110.559679 295.488 
L 111.275351 284.30073 
L 112.706693 284.30073 
L 113.422365 278.707095 
L 114.138036 289.894365 
L 114.853707 295.488 
L 115.569379 289.894365 
L 116.28505 295.488 
L 117.000721 289.894365 
L 117.716393 289.894365 
L 118.432064 267.519826 
L 119.147735 284.30073 
L 119.863407 273.11346 
L 120.579078 256.332556 
L 121.294749 278.707095 
L 122.010421 273.11346 
L 122.726092 261.926191 
L 123.441764 284.30073 
L 124.157435 289.894365 
L 124.873106 284.30073 
L 125.588778 273.11346 
L 126.304449 273.11346 
L 127.02012 289.894365 
L 127.735792 284.30073 
L 128.451463 273.11346 
L 129.167134 284.30073 
L 129.882806 278.707095 
L 130.598477 284.30073 
L 131.314148 284.30073 
L 132.02982 261.926191 
L 133.461162 250.738921 
L 134.176834 267.519826 
L 134.892505 261.926191 
L 135.608176 284.30073 
L 136.323848 273.11346 
L 137.039519 256.332556 
L 137.75519 278.707095 
L 139.186533 267.519826 
L 139.902204 250.738921 
L 140.617876 261.926191 
L 141.333547 278.707095 
L 142.049218 278.707095 
L 142.76489 256.332556 
L 143.480561 261.926191 
L 144.196232 284.30073 
L 144.911904 239.551651 
L 145.627575 245.145286 
L 146.343246 273.11346 
L 147.058918 256.332556 
L 147.774589 273.11346 
L 148.490261 278.707095 
L 149.205932 295.488 
L 149.921603 284.30073 
L 150.637275 278.707095 
L 151.352946 245.145286 
L 152.068617 261.926191 
L 152.784289 256.332556 
L 154.215631 267.519826 
L 154.931303 278.707095 
L 155.646974 256.332556 
L 156.362645 284.30073 
L 157.793988 261.926191 
L 158.509659 261.926191 
L 159.225331 228.364381 
L 159.941002 261.926191 
L 160.656673 267.519826 
L 161.372345 239.551651 
L 162.088016 250.738921 
L 162.803687 256.332556 
L 163.519359 256.332556 
L 164.23503 267.519826 
L 164.950701 245.145286 
L 165.666373 256.332556 
L 166.382044 239.551651 
L 167.097715 261.926191 
L 167.813387 239.551651 
L 168.529058 273.11346 
L 169.244729 278.707095 
L 169.960401 245.145286 
L 170.676072 250.738921 
L 171.391743 250.738921 
L 172.823086 261.926191 
L 173.538758 278.707095 
L 174.254429 256.332556 
L 174.9701 267.519826 
L 175.685772 239.551651 
L 176.401443 267.519826 
L 177.117114 250.738921 
L 177.832786 239.551651 
L 178.548457 245.145286 
L 179.264128 233.958016 
L 179.9798 250.738921 
L 180.695471 261.926191 
L 181.411142 239.551651 
L 182.842485 228.364381 
L 183.558156 233.958016 
L 184.273828 256.332556 
L 184.989499 233.958016 
L 186.420842 256.332556 
L 187.136513 256.332556 
L 187.852184 245.145286 
L 188.567856 256.332556 
L 189.283527 250.738921 
L 189.999198 250.738921 
L 190.71487 261.926191 
L 191.430541 228.364381 
L 192.146212 228.364381 
L 192.861884 261.926191 
L 193.577555 245.145286 
L 194.293226 239.551651 
L 195.008898 261.926191 
L 195.724569 250.738921 
L 196.44024 228.364381 
L 197.155912 278.707095 
L 197.871583 233.958016 
L 198.587255 261.926191 
L 199.302926 267.519826 
L 200.018597 250.738921 
L 200.734269 245.145286 
L 201.44994 228.364381 
L 202.165611 189.208937 
L 202.881283 256.332556 
L 203.596954 261.926191 
L 204.312625 217.177112 
L 205.028297 245.145286 
L 205.743968 228.364381 
L 206.459639 217.177112 
L 207.175311 256.332556 
L 207.890982 261.926191 
L 208.606653 233.958016 
L 209.322325 261.926191 
L 210.037996 228.364381 
L 210.753667 245.145286 
L 211.469339 217.177112 
L 212.18501 217.177112 
L 212.900681 211.583477 
L 213.616353 245.145286 
L 214.332024 245.145286 
L 215.047695 211.583477 
L 215.763367 256.332556 
L 216.479038 261.926191 
L 217.194709 239.551651 
L 217.910381 256.332556 
L 218.626052 245.145286 
L 219.341723 239.551651 
L 220.057395 228.364381 
L 220.773066 245.145286 
L 221.488737 205.989842 
L 222.204409 261.926191 
L 222.92008 239.551651 
L 223.635752 233.958016 
L 224.351423 250.738921 
L 225.067094 222.770747 
L 225.782766 273.11346 
L 226.498437 250.738921 
L 227.214108 256.332556 
L 227.92978 233.958016 
L 228.645451 239.551651 
L 229.361122 228.364381 
L 230.076794 284.30073 
L 230.792465 250.738921 
L 231.508136 256.332556 
L 232.223808 228.364381 
L 232.939479 250.738921 
L 233.65515 267.519826 
L 234.370822 250.738921 
L 235.086493 250.738921 
L 235.802164 261.926191 
L 236.517836 250.738921 
L 237.233507 278.707095 
L 237.949178 273.11346 
L 238.66485 239.551651 
L 239.380521 256.332556 
L 240.096192 261.926191 
L 240.811864 233.958016 
L 241.527535 267.519826 
L 242.243206 267.519826 
L 242.958878 256.332556 
L 243.674549 278.707095 
L 245.105892 267.519826 
L 245.821563 267.519826 
L 246.537234 256.332556 
L 247.252906 278.707095 
L 247.968577 256.332556 
L 248.684248 273.11346 
L 249.39992 267.519826 
L 250.115591 273.11346 
L 250.831263 256.332556 
L 251.546934 267.519826 
L 252.262605 273.11346 
L 252.978277 250.738921 
L 253.693948 284.30073 
L 254.409619 256.332556 
L 255.125291 261.926191 
L 255.840962 278.707095 
L 257.272305 289.894365 
L 257.987976 284.30073 
L 258.703647 284.30073 
L 259.419319 267.519826 
L 260.13499 273.11346 
L 260.850661 256.332556 
L 261.566333 289.894365 
L 262.282004 273.11346 
L 262.997675 295.488 
L 263.713347 273.11346 
L 264.429018 289.894365 
L 265.860361 278.707095 
L 266.576032 278.707095 
L 267.291703 295.488 
L 268.007375 261.926191 
L 268.723046 289.894365 
L 269.438717 278.707095 
L 270.154389 278.707095 
L 270.87006 284.30073 
L 271.585731 295.488 
L 272.301403 284.30073 
L 273.017074 284.30073 
L 273.732745 278.707095 
L 274.448417 289.894365 
L 275.164088 289.894365 
L 275.87976 284.30073 
L 276.595431 273.11346 
L 277.311102 273.11346 
L 278.026774 289.894365 
L 278.742445 278.707095 
L 279.458116 295.488 
L 280.173788 289.894365 
L 280.889459 295.488 
L 281.60513 284.30073 
L 282.320802 289.894365 
L 283.036473 289.894365 
L 283.752144 295.488 
L 285.183487 284.30073 
L 285.899158 295.488 
L 286.61483 289.894365 
L 287.330501 278.707095 
L 288.046172 295.488 
L 288.761844 289.894365 
L 289.477515 289.894365 
L 290.193186 295.488 
L 290.908858 278.707095 
L 291.624529 284.30073 
L 292.3402 295.488 
L 293.055872 284.30073 
L 293.771543 295.488 
L 294.487214 289.894365 
L 295.202886 295.488 
L 295.918557 284.30073 
L 296.634228 295.488 
L 297.3499 289.894365 
L 298.065571 295.488 
L 298.781242 295.488 
L 299.496914 289.894365 
L 300.212585 289.894365 
L 300.928257 295.488 
L 301.643928 289.894365 
L 302.359599 295.488 
L 304.506613 295.488 
L 305.222285 289.894365 
L 305.937956 295.488 
L 306.653627 284.30073 
L 307.369299 295.488 
L 308.800641 295.488 
L 309.516313 289.894365 
L 310.231984 289.894365 
L 310.947655 295.488 
L 312.378998 295.488 
L 313.094669 289.894365 
L 313.810341 295.488 
L 318.82004 295.488 
L 319.535711 289.894365 
L 320.251383 295.488 
L 320.967054 289.894365 
L 321.682725 289.894365 
L 322.398397 295.488 
L 326.692425 295.488 
L 327.408096 289.894365 
L 328.123768 295.488 
L 328.839439 289.894365 
L 329.55511 289.894365 
L 330.270782 295.488 
L 335.996152 295.488 
L 336.711824 289.894365 
L 337.427495 289.894365 
L 338.143166 295.488 
L 414.72 295.488 
L 414.72 295.488 
" clip-path="url(#pf9d70a40be)" style="fill: none; stroke: #1f77b4; stroke-width: 1.5; stroke-linecap: square"/>
   </g>
   <g id="line2d_15">
    <path d="M 57.6 295.488 
L 275.87976 295.440916 
L 276.595431 295.299662 
L 280.173788 295.440916 
L 280.889459 295.158409 
L 281.60513 295.299662 
L 282.320802 295.252578 
L 283.036473 295.346747 
L 283.752144 295.158409 
L 284.467816 295.440916 
L 285.183487 295.06424 
L 285.899158 295.252578 
L 286.61483 295.299662 
L 287.330501 295.111324 
L 288.046172 295.111324 
L 288.761844 295.299662 
L 289.477515 295.346747 
L 290.193186 295.252578 
L 290.908858 295.017155 
L 291.624529 295.252578 
L 292.3402 294.875902 
L 293.055872 294.734649 
L 293.771543 294.970071 
L 294.487214 294.734649 
L 295.202886 294.357973 
L 295.918557 294.781733 
L 298.065571 294.452142 
L 298.781242 294.028381 
L 299.496914 293.840044 
L 300.212585 293.416283 
L 300.928257 293.27503 
L 301.643928 293.322114 
L 302.359599 292.898354 
L 303.075271 293.651706 
L 303.790942 291.674158 
L 304.506613 292.239172 
L 305.222285 291.579989 
L 305.937956 291.815411 
L 306.653627 291.156229 
L 307.369299 289.837864 
L 308.08497 290.120371 
L 308.800641 288.613668 
L 309.516313 288.613668 
L 310.231984 287.577809 
L 310.947655 283.0577 
L 311.663327 286.589035 
L 312.378998 284.470234 
L 313.810341 281.315575 
L 314.526012 280.279717 
L 315.241683 279.714703 
L 315.957355 275.241678 
L 316.673026 276.983804 
L 317.388697 271.945766 
L 318.104369 270.344894 
L 318.82004 268.273177 
L 319.535711 267.001896 
L 320.967054 260.457155 
L 321.682725 255.042441 
L 322.398397 257.537918 
L 323.114068 248.591869 
L 323.829739 248.262278 
L 324.545411 242.376719 
L 325.261082 246.425984 
L 325.976754 212.572251 
L 326.692425 223.73127 
L 327.408096 228.392632 
L 328.839439 214.173123 
L 329.55511 208.193395 
L 330.270782 204.803313 
L 330.986453 195.433504 
L 331.702124 192.090507 
L 332.417796 185.122005 
L 333.133467 175.516774 
L 333.849138 167.747837 
L 334.56481 167.512414 
L 335.280481 142.745984 
L 335.996152 154.752523 
L 336.711824 140.015084 
L 337.427495 121.981733 
L 338.143166 135.212469 
L 338.858838 103.807128 
L 339.574509 121.275466 
L 340.29018 53.568 
L 341.005852 104.98424 
L 341.721523 79.27612 
L 342.437194 107.103041 
L 343.868537 70.330071 
L 344.584208 69.953395 
L 345.29988 53.99176 
L 346.015551 90.76473 
L 346.731222 66.280807 
L 347.446894 69.48255 
L 348.162565 58.370616 
L 348.878236 97.686147 
L 349.593908 82.383695 
L 350.309579 86.432959 
L 351.025251 98.109907 
L 351.740922 100.417046 
L 352.456593 107.103041 
L 353.172265 158.895956 
L 353.887936 120.522114 
L 354.603607 137.33127 
L 355.319279 133.187837 
L 356.750621 195.292251 
L 357.466293 194.256392 
L 358.181964 205.038736 
L 358.897635 207.063368 
L 359.613307 233.43067 
L 360.328978 236.773668 
L 361.044649 250.098572 
L 361.760321 253.912414 
L 362.475992 261.116338 
L 363.191663 265.7777 
L 363.907335 276.654213 
L 364.623006 275.241678 
L 365.338677 280.373886 
L 366.77002 288.707837 
L 368.201363 291.532905 
L 368.917034 291.956665 
L 369.632705 293.27503 
L 370.348377 293.934213 
L 371.064048 294.357973 
L 371.779719 294.970071 
L 373.926733 295.158409 
L 374.642405 295.346747 
L 378.220762 295.488 
L 414.72 295.488 
L 414.72 295.488 
" clip-path="url(#pf9d70a40be)" style="fill: none; stroke: #ff7f0e; stroke-width: 1.5; stroke-linecap: square"/>
   </g>
   <g id="patch_3">
    <path d="M 57.6 307.584 
L 57.6 41.472 
" style="fill: none; stroke: #000000; stroke-width: 0.8; stroke-linejoin: miter; stroke-linecap: square"/>
   </g>
   <g id="patch_4">
    <path d="M 414.72 307.584 
L 414.72 41.472 
" style="fill: none; stroke: #000000; stroke-width: 0.8; stroke-linejoin: miter; stroke-linecap: square"/>
   </g>
   <g id="patch_5">
    <path d="M 57.6 307.584 
L 414.72 307.584 
" style="fill: none; stroke: #000000; stroke-width: 0.8; stroke-linejoin: miter; stroke-linecap: square"/>
   </g>
   <g id="patch_6">
    <path d="M 57.6 41.472 
L 414.72 41.472 
" style="fill: none; stroke: #000000; stroke-width: 0.8; stroke-linejoin: miter; stroke-linecap: square"/>
   </g>
   <g id="legend_1">
    <g id="patch_7">
     <path d="M 64.6 77.772 
L 135.498437 77.772 
Q 137.498437 77.772 137.498437 75.772 
L 137.498437 48.472 
Q 137.498437 46.472 135.498437 46.472 
L 64.6 46.472 
Q 62.6 46.472 62.6 48.472 
L 62.6 75.772 
Q 62.6 77.772 64.6 77.772 
z
" style="fill: #ffffff; opacity: 0.8; stroke: #cccccc; stroke-linejoin: miter"/>
    </g>
    <g id="line2d_16">
     <path d="M 66.6 54.129813 
L 76.6 54.129813 
L 86.6 54.129813 
" style="fill: none; stroke: #1f77b4; stroke-width: 1.5; stroke-linecap: square"/>
    </g>
    <g id="text_16">
     <!-- Genuine -->
     <g transform="translate(94.6 57.629813) scale(0.1 -0.1)">
      <defs>
       <path id="ArialUnicodeMS-47" d="M 4569 641 
Q 3703 -78 2675 -78 
Q 1622 -78 976 564 
Q 331 1206 331 2272 
Q 331 2922 595 3483 
Q 859 4044 1373 4351 
Q 1888 4659 2631 4659 
Q 3403 4659 3870 4320 
Q 4338 3981 4500 3303 
L 3956 3150 
Q 3828 3644 3497 3892 
Q 3166 4141 2631 4141 
Q 1803 4141 1381 3634 
Q 959 3128 959 2309 
Q 959 1697 1164 1290 
Q 1369 884 1770 676 
Q 2172 469 2644 469 
Q 3363 469 3981 941 
L 3981 1791 
L 2631 1791 
L 2631 2338 
L 4569 2338 
L 4569 641 
z
" transform="scale(0.015625)"/>
       <path id="ArialUnicodeMS-75" d="M 3116 0 
L 2613 0 
L 2613 488 
L 2597 488 
Q 2216 -78 1556 -78 
Q 1209 -78 914 83 
Q 619 244 520 526 
Q 422 809 422 1259 
L 422 3316 
L 984 3316 
L 984 1478 
Q 984 1038 1026 847 
Q 1069 656 1247 532 
Q 1425 409 1672 409 
Q 1991 409 2272 629 
Q 2553 850 2553 1544 
L 2553 3316 
L 3116 3316 
L 3116 0 
z
" transform="scale(0.015625)"/>
      </defs>
      <use xlink:href="#ArialUnicodeMS-47"/>
      <use xlink:href="#ArialUnicodeMS-65" x="77.783203"/>
      <use xlink:href="#ArialUnicodeMS-6e" x="133.398438"/>
      <use xlink:href="#ArialUnicodeMS-75" x="189.013672"/>
      <use xlink:href="#ArialUnicodeMS-69" x="244.628906"/>
      <use xlink:href="#ArialUnicodeMS-6e" x="266.845703"/>
      <use xlink:href="#ArialUnicodeMS-65" x="322.460938"/>
     </g>
    </g>
    <g id="line2d_17">
     <path d="M 66.6 68.279812 
L 76.6 68.279812 
L 86.6 68.279812 
" style="fill: none; stroke: #ff7f0e; stroke-width: 1.5; stroke-linecap: square"/>
    </g>
    <g id="text_17">
     <!-- Imposter -->
     <g transform="translate(94.6 71.779812) scale(0.1 -0.1)">
      <defs>
       <path id="ArialUnicodeMS-49" d="M 1197 0 
L 588 0 
L 588 4581 
L 1197 4581 
L 1197 0 
z
" transform="scale(0.015625)"/>
       <path id="ArialUnicodeMS-70" d="M 959 2888 
Q 1275 3391 1906 3391 
Q 2559 3391 2937 2917 
Q 3316 2444 3316 1684 
Q 3316 875 2897 398 
Q 2478 -78 1869 -78 
Q 1334 -78 1013 347 
L 997 347 
L 997 -1275 
L 434 -1275 
L 434 3316 
L 947 3316 
L 947 2888 
L 959 2888 
z
M 1831 384 
Q 2225 384 2483 711 
Q 2741 1038 2741 1684 
Q 2741 2294 2492 2622 
Q 2244 2950 1856 2950 
Q 1456 2950 1198 2584 
Q 941 2219 941 1638 
Q 941 1022 1187 703 
Q 1434 384 1831 384 
z
" transform="scale(0.015625)"/>
       <path id="ArialUnicodeMS-6f" d="M 1778 3391 
Q 2450 3391 2892 2953 
Q 3334 2516 3334 1709 
Q 3334 731 2856 326 
Q 2378 -78 1778 -78 
Q 1150 -78 687 337 
Q 225 753 225 1656 
Q 225 2531 672 2961 
Q 1119 3391 1778 3391 
z
M 1778 384 
Q 2259 384 2509 740 
Q 2759 1097 2759 1678 
Q 2759 2300 2476 2615 
Q 2194 2931 1778 2931 
Q 1350 2931 1075 2611 
Q 800 2291 800 1656 
Q 800 1025 1079 704 
Q 1359 384 1778 384 
z
" transform="scale(0.015625)"/>
      </defs>
      <use xlink:href="#ArialUnicodeMS-49"/>
      <use xlink:href="#ArialUnicodeMS-6d" x="27.783203"/>
      <use xlink:href="#ArialUnicodeMS-70" x="111.083984"/>
      <use xlink:href="#ArialUnicodeMS-6f" x="166.699219"/>
      <use xlink:href="#ArialUnicodeMS-73" x="222.314453"/>
      <use xlink:href="#ArialUnicodeMS-74" x="272.314453"/>
      <use xlink:href="#ArialUnicodeMS-65" x="300.097656"/>
      <use xlink:href="#ArialUnicodeMS-72" x="355.712891"/>
     </g>
    </g>
   </g>
  </g>
 </g>
 <defs>
  <clipPath id="pf9d70a40be">
   <rect x="57.6" y="41.472" width="357.12" height="266.112"/>
  </clipPath>
 </defs>
</svg>
